Coordinates
version=1
nRows=20
nColumns=38
inDegrees=no

Units are S.I. units (second, meters, Newtons, ...)
If the header above contains a line with 'inDegrees', this indicates whether rotational values are in degrees (yes) or radians (no).

endheader
time	pelvis_tilt	pelvis_list	pelvis_rotation	pelvis_tx	pelvis_ty	pelvis_tz	hip_flexion_r	hip_adduction_r	hip_rotation_r	knee_angle_r	ankle_angle_r	subtalar_angle_r	mtp_angle_r	hip_flexion_l	hip_adduction_l	hip_rotation_l	knee_angle_l	ankle_angle_l	subtalar_angle_l	mtp_angle_l	lumbar_extension	lumbar_bending	lumbar_rotation	arm_flex_r	arm_add_r	arm_rot_r	elbow_flex_r	pro_sup_r	wrist_flex_r	wrist_dev_r	arm_flex_l	arm_add_l	arm_rot_l	elbow_flex_l	pro_sup_l	wrist_flex_l	wrist_dev_l
0	3.11641	0.995016	1.59506	0.662773	1.89597	1.00974	0.471785	0.00477456	-0.0515106	0.284233	-0.0649242	0	0	0.891736	-0.0368368	-0.138407	0.121104	-0.416385	0	0	0.617774	-0.00858147	0.070624	-0.200182	-0.371524	0.134183	0.645255	1.41844	0	0	-0.34509	-0.101139	-0.593362	0.527197	1.24925	0	0
0.01	3.12033	0.993096	1.58061	0.66152	1.88594	1.00822	0.460531	0.0118018	-0.0397113	0.277334	-0.0655959	0	0	0.899334	-0.0445522	-0.136064	0.0927426	-0.412621	0	0	0.620031	-0.00120363	0.0688354	-0.185695	-0.375771	0.149253	0.650549	1.42576	0	0	-0.349036	-0.0957285	-0.600564	0.534102	1.25296	0	0
0.02	-3.11025	1.03384	1.50114	0.659872	1.87323	1.00558	0.399701	0.0512954	-0.0348618	0.267391	-0.0602528	0	0	0.860296	-0.0869145	-0.181173	0.065165	-0.37185	0	0	0.562046	0.0451955	0.0702347	-0.175344	-0.400277	0.160172	0.691978	1.42271	0	0	-0.3531	-0.0741961	-0.612949	0.565854	1.25778	0	0
0.03	-3.10887	1.02573	1.49577	0.659614	1.86279	1.00343	0.397083	0.0524145	-0.0349142	0.268001	-0.0597351	0	0	0.867218	-0.0881689	-0.190087	0.0231865	-0.369813	0	0	0.570584	0.0481715	0.0685658	-0.166865	-0.402972	0.167927	0.697689	1.42165	0	0	-0.354673	-0.0709901	-0.615997	0.569114	1.26284	0	0
0.04	-3.1082	1.02032	1.49011	0.659166	1.85184	1.00137	0.392023	0.0534891	-0.0358514	0.270013	-0.0591363	0	0	0.871846	-0.0899566	-0.189314	0	-0.362375	0	0	0.576917	0.0509462	0.0684889	-0.15846	-0.404348	0.175658	0.701112	1.42281	0	0	-0.355673	-0.0689833	-0.617232	0.570962	1.26609	0	0
0.05	-3.10751	1.01686	1.48461	0.658783	1.84054	0.999353	0.386174	0.054625	-0.0442288	0.274115	-0.0634011	0	0	0.875095	-0.0909986	-0.184517	0	-0.349086	0	0	0.581341	0.0534433	0.0685313	-0.149323	-0.405326	0.185337	0.702067	1.42438	0	0	-0.355689	-0.0669934	-0.619276	0.571598	1.26984	0	0
0.06	-3.11319	1.01118	1.48386	0.658331	1.82938	0.997194	0.383639	0.0522	-0.0343681	0.282115	-0.055456	0	0	0.881291	-0.0909839	-0.183688	0	-0.333899	0	0	0.587894	0.0529707	0.0705758	-0.1393	-0.404386	0.195359	0.700487	1.42508	0	0	-0.355337	-0.065612	-0.622491	0.571595	1.27507	0	0
0.07	-3.12	1.00683	1.48475	0.657982	1.81795	0.995233	0.381077	0.0493162	-0.0305663	0.291758	-0.0523877	0	0	0.887288	-0.0898875	-0.185057	0	-0.32053	0	0	0.593038	0.0514793	0.0730334	-0.129666	-0.402281	0.204282	0.697283	1.42634	0	0	-0.353533	-0.0651373	-0.624593	0.569047	1.28265	0	0
0.08	-3.12472	1.00449	1.48754	0.658005	1.80655	0.99358	0.376933	0.0461367	-0.0296364	0.302361	-0.0504762	0	0	0.893462	-0.0859048	-0.180588	0	-0.308386	0	0	0.595104	0.048757	0.0728046	-0.119714	-0.399284	0.211556	0.692713	1.42741	0	0	-0.348802	-0.0653602	-0.625824	0.563591	1.29209	0	0
0.09	-3.12154	1.00591	1.48788	0.658465	1.79528	0.992152	0.368576	0.0454624	-0.0335124	0.312452	-0.0498057	0	0	0.897707	-0.0819282	-0.168336	0	-0.302061	0	0	0.591422	0.0471511	0.0690949	-0.110987	-0.396459	0.214089	0.6897	1.42611	0	0	-0.341476	-0.0655553	-0.624191	0.558884	1.29819	0	0
0.1	-3.11389	1.03018	1.4754	0.657392	1.78182	0.992304	0.332659	0.0498133	-0.0387586	0.315964	-0.0522427	0	0	1.01927	-0.134148	-0.380703	0.351489	-0.143202	0	0	0.560976	0.0494712	0.0728249	-0.0979843	-0.391182	0.21769	0.68253	1.4235	0	0	-0.328807	-0.0658031	-0.630168	0.550725	1.31375	0	0
0.11	-3.12451	1.01111	1.49464	0.658988	1.77144	0.989999	0.351527	0.0396471	-0.0389221	0.339524	-0.0501211	0	0	0.900581	-0.0732688	-0.146564	0.00138981	-0.285085	0	0	0.581986	0.0382795	0.066497	-0.0959721	-0.386501	0.21923	0.679492	1.42217	0	0	-0.325398	-0.0650532	-0.637151	0.547391	1.3278	0	0
0.12	-3.12905	1.00994	1.49811	0.659106	1.75894	0.988799	0.347998	0.0356945	-0.0370303	0.356086	-0.0526302	0	0	0.906869	-0.0710202	-0.144273	0.0324893	-0.283401	0	0	0.582816	0.0335266	0.0686985	-0.0942792	-0.381447	0.220389	0.677148	1.42202	0	0	-0.322282	-0.0655791	-0.638511	0.545609	1.33391	0	0
0.13	-3.13245	1.00891	1.5005	0.659246	1.74609	0.987661	0.344737	0.0320542	-0.0361673	0.37324	-0.0573922	0	0	0.910531	-0.0686683	-0.137235	0.0614869	-0.279331	0	0	0.583924	0.0290358	0.0712697	-0.0949024	-0.376356	0.220788	0.675568	1.42274	0	0	-0.320506	-0.065456	-0.641635	0.545626	1.33853	0	0
0.14	-3.13632	1.00701	1.50335	0.65941	1.73296	0.98656	0.343189	0.0278259	-0.0356272	0.391745	-0.0645349	0	0	0.912305	-0.0648516	-0.12651	0.0847331	-0.278015	0	0	0.587196	0.0239788	0.0744012	-0.0973796	-0.370597	0.22078	0.673016	1.42367	0	0	-0.320277	-0.0657163	-0.644563	0.546166	1.34204	0	0
0.15	3.14073	1.0037	1.50792	0.65957	1.71957	0.985536	0.344426	0.0220213	-0.0350379	0.412306	-0.074261	0	0	0.914478	-0.0589259	-0.118881	0.102258	-0.285194	0	0	0.593481	0.017828	0.0781348	-0.101072	-0.364133	0.221944	0.668931	1.42561	0	0	-0.321375	-0.0666709	-0.647769	0.545868	1.34466	0	0
0.16	3.13276	0.999035	1.51375	0.659707	1.70601	0.984708	0.348872	0.0150887	-0.0330122	0.435724	-0.0868611	0	0	0.917126	-0.0515857	-0.1113	0.113678	-0.301611	0	0	0.602068	0.0110154	0.082089	-0.104818	-0.356615	0.223964	0.662214	1.42744	0	0	-0.323219	-0.0683125	-0.651079	0.543921	1.34733	0	0
0.17	3.12428	0.9933	1.52015	0.659874	1.69235	0.984152	0.356658	0.00764667	-0.0293446	0.463025	-0.103016	0	0	0.924212	-0.0461877	-0.112133	0.133467	-0.316556	0	0	0.612226	0.00392281	0.0855717	-0.108583	-0.348286	0.226743	0.653145	1.42872	0	0	-0.32572	-0.0703291	-0.65485	0.540834	1.34984	0	0
0.18	3.11549	0.985924	1.52844	0.660134	1.67878	0.983903	0.368834	-0.000745359	-0.0249621	0.494778	-0.12457	0	0	0.929705	-0.0407462	-0.108443	0.148185	-0.326703	0	0	0.624081	-0.00449441	0.0867213	-0.11168	-0.338997	0.231404	0.641759	1.43016	0	0	-0.329247	-0.0726146	-0.659433	0.537612	1.35138	0	0
0.19	3.10747	0.978855	1.53793	0.660531	1.66527	0.983992	0.383284	-0.00987828	-0.0212983	0.530016	-0.155296	0	0	0.933893	-0.0352677	-0.10332	0.164826	-0.328334	0	0	0.63454	-0.0142844	0.0849158	-0.113404	-0.329032	0.237709	0.628544	1.43063	0	0	-0.333264	-0.0746516	-0.665647	0.535333	1.35214	0	0
